<?xml version="1.0" encoding="utf-8" standalone="no"?>
<!DOCTYPE svg PUBLIC "-//W3C//DTD SVG 1.1//EN"
  "http://www.w3.org/Graphics/SVG/1.1/DTD/svg11.dtd">
<!-- Created with matplotlib (https://matplotlib.org/) -->
<svg height="345.6pt" version="1.1" viewBox="0 0 460.8 345.6" width="460.8pt" xmlns="http://www.w3.org/2000/svg" xmlns:xlink="http://www.w3.org/1999/xlink">
 <defs>
  <style type="text/css">
*{stroke-linecap:butt;stroke-linejoin:round;}
  </style>
 </defs>
 <g id="figure_1">
  <g id="patch_1">
   <path d="M 0 345.6 
L 460.8 345.6 
L 460.8 0 
L 0 0 
z
" style="fill:#ffffff;"/>
  </g>
  <g id="axes_1">
   <g id="patch_2">
    <path d="M 57.6 307.584 
L 414.72 307.584 
L 414.72 41.472 
L 57.6 41.472 
z
" style="fill:#e5e5e5;"/>
   </g>
   <g id="matplotlib.axis_1">
    <g id="xtick_1">
     <g id="line2d_1">
      <defs>
       <path d="M 0 0 
L 0 3.5 
" id="m1dcdafd543" style="stroke:#555555;stroke-width:0.8;"/>
      </defs>
      <g>
       <use style="fill:#555555;stroke:#555555;stroke-width:0.8;" x="117.12" xlink:href="#m1dcdafd543" y="307.584"/>
      </g>
     </g>
     <g id="text_1">
      <!-- neutral -->
      <defs>
       <path d="M 54.890625 33.015625 
L 54.890625 0 
L 45.90625 0 
L 45.90625 32.71875 
Q 45.90625 40.484375 42.875 44.328125 
Q 39.84375 48.1875 33.796875 48.1875 
Q 26.515625 48.1875 22.3125 43.546875 
Q 18.109375 38.921875 18.109375 30.90625 
L 18.109375 0 
L 9.078125 0 
L 9.078125 54.6875 
L 18.109375 54.6875 
L 18.109375 46.1875 
Q 21.34375 51.125 25.703125 53.5625 
Q 30.078125 56 35.796875 56 
Q 45.21875 56 50.046875 50.171875 
Q 54.890625 44.34375 54.890625 33.015625 
z
" id="DejaVuSans-110"/>
       <path d="M 56.203125 29.59375 
L 56.203125 25.203125 
L 14.890625 25.203125 
Q 15.484375 15.921875 20.484375 11.0625 
Q 25.484375 6.203125 34.421875 6.203125 
Q 39.59375 6.203125 44.453125 7.46875 
Q 49.3125 8.734375 54.109375 11.28125 
L 54.109375 2.78125 
Q 49.265625 0.734375 44.1875 -0.34375 
Q 39.109375 -1.421875 33.890625 -1.421875 
Q 20.796875 -1.421875 13.15625 6.1875 
Q 5.515625 13.8125 5.515625 26.8125 
Q 5.515625 40.234375 12.765625 48.109375 
Q 20.015625 56 32.328125 56 
Q 43.359375 56 49.78125 48.890625 
Q 56.203125 41.796875 56.203125 29.59375 
z
M 47.21875 32.234375 
Q 47.125 39.59375 43.09375 43.984375 
Q 39.0625 48.390625 32.421875 48.390625 
Q 24.90625 48.390625 20.390625 44.140625 
Q 15.875 39.890625 15.1875 32.171875 
z
" id="DejaVuSans-101"/>
       <path d="M 8.5 21.578125 
L 8.5 54.6875 
L 17.484375 54.6875 
L 17.484375 21.921875 
Q 17.484375 14.15625 20.5 10.265625 
Q 23.53125 6.390625 29.59375 6.390625 
Q 36.859375 6.390625 41.078125 11.03125 
Q 45.3125 15.671875 45.3125 23.6875 
L 45.3125 54.6875 
L 54.296875 54.6875 
L 54.296875 0 
L 45.3125 0 
L 45.3125 8.40625 
Q 42.046875 3.421875 37.71875 1 
Q 33.40625 -1.421875 27.6875 -1.421875 
Q 18.265625 -1.421875 13.375 4.4375 
Q 8.5 10.296875 8.5 21.578125 
z
M 31.109375 56 
z
" id="DejaVuSans-117"/>
       <path d="M 18.3125 70.21875 
L 18.3125 54.6875 
L 36.8125 54.6875 
L 36.8125 47.703125 
L 18.3125 47.703125 
L 18.3125 18.015625 
Q 18.3125 11.328125 20.140625 9.421875 
Q 21.96875 7.515625 27.59375 7.515625 
L 36.8125 7.515625 
L 36.8125 0 
L 27.59375 0 
Q 17.1875 0 13.234375 3.875 
Q 9.28125 7.765625 9.28125 18.015625 
L 9.28125 47.703125 
L 2.6875 47.703125 
L 2.6875 54.6875 
L 9.28125 54.6875 
L 9.28125 70.21875 
z
" id="DejaVuSans-116"/>
       <path d="M 41.109375 46.296875 
Q 39.59375 47.171875 37.8125 47.578125 
Q 36.03125 48 33.890625 48 
Q 26.265625 48 22.1875 43.046875 
Q 18.109375 38.09375 18.109375 28.8125 
L 18.109375 0 
L 9.078125 0 
L 9.078125 54.6875 
L 18.109375 54.6875 
L 18.109375 46.1875 
Q 20.953125 51.171875 25.484375 53.578125 
Q 30.03125 56 36.53125 56 
Q 37.453125 56 38.578125 55.875 
Q 39.703125 55.765625 41.0625 55.515625 
z
" id="DejaVuSans-114"/>
       <path d="M 34.28125 27.484375 
Q 23.390625 27.484375 19.1875 25 
Q 14.984375 22.515625 14.984375 16.5 
Q 14.984375 11.71875 18.140625 8.90625 
Q 21.296875 6.109375 26.703125 6.109375 
Q 34.1875 6.109375 38.703125 11.40625 
Q 43.21875 16.703125 43.21875 25.484375 
L 43.21875 27.484375 
z
M 52.203125 31.203125 
L 52.203125 0 
L 43.21875 0 
L 43.21875 8.296875 
Q 40.140625 3.328125 35.546875 0.953125 
Q 30.953125 -1.421875 24.3125 -1.421875 
Q 15.921875 -1.421875 10.953125 3.296875 
Q 6 8.015625 6 15.921875 
Q 6 25.140625 12.171875 29.828125 
Q 18.359375 34.515625 30.609375 34.515625 
L 43.21875 34.515625 
L 43.21875 35.40625 
Q 43.21875 41.609375 39.140625 45 
Q 35.0625 48.390625 27.6875 48.390625 
Q 23 48.390625 18.546875 47.265625 
Q 14.109375 46.140625 10.015625 43.890625 
L 10.015625 52.203125 
Q 14.9375 54.109375 19.578125 55.046875 
Q 24.21875 56 28.609375 56 
Q 40.484375 56 46.34375 49.84375 
Q 52.203125 43.703125 52.203125 31.203125 
z
" id="DejaVuSans-97"/>
       <path d="M 9.421875 75.984375 
L 18.40625 75.984375 
L 18.40625 0 
L 9.421875 0 
z
" id="DejaVuSans-108"/>
      </defs>
      <g style="fill:#555555;" transform="translate(99.237188 322.182437)scale(0.1 -0.1)">
       <use xlink:href="#DejaVuSans-110"/>
       <use x="63.378906" xlink:href="#DejaVuSans-101"/>
       <use x="124.902344" xlink:href="#DejaVuSans-117"/>
       <use x="188.28125" xlink:href="#DejaVuSans-116"/>
       <use x="227.490234" xlink:href="#DejaVuSans-114"/>
       <use x="268.603516" xlink:href="#DejaVuSans-97"/>
       <use x="329.882812" xlink:href="#DejaVuSans-108"/>
      </g>
     </g>
    </g>
    <g id="xtick_2">
     <g id="line2d_2">
      <g>
       <use style="fill:#555555;stroke:#555555;stroke-width:0.8;" x="236.16" xlink:href="#m1dcdafd543" y="307.584"/>
      </g>
     </g>
     <g id="text_2">
      <!-- incongruent -->
      <defs>
       <path d="M 9.421875 54.6875 
L 18.40625 54.6875 
L 18.40625 0 
L 9.421875 0 
z
M 9.421875 75.984375 
L 18.40625 75.984375 
L 18.40625 64.59375 
L 9.421875 64.59375 
z
" id="DejaVuSans-105"/>
       <path d="M 48.78125 52.59375 
L 48.78125 44.1875 
Q 44.96875 46.296875 41.140625 47.34375 
Q 37.3125 48.390625 33.40625 48.390625 
Q 24.65625 48.390625 19.8125 42.84375 
Q 14.984375 37.3125 14.984375 27.296875 
Q 14.984375 17.28125 19.8125 11.734375 
Q 24.65625 6.203125 33.40625 6.203125 
Q 37.3125 6.203125 41.140625 7.25 
Q 44.96875 8.296875 48.78125 10.40625 
L 48.78125 2.09375 
Q 45.015625 0.34375 40.984375 -0.53125 
Q 36.96875 -1.421875 32.421875 -1.421875 
Q 20.0625 -1.421875 12.78125 6.34375 
Q 5.515625 14.109375 5.515625 27.296875 
Q 5.515625 40.671875 12.859375 48.328125 
Q 20.21875 56 33.015625 56 
Q 37.15625 56 41.109375 55.140625 
Q 45.0625 54.296875 48.78125 52.59375 
z
" id="DejaVuSans-99"/>
       <path d="M 30.609375 48.390625 
Q 23.390625 48.390625 19.1875 42.75 
Q 14.984375 37.109375 14.984375 27.296875 
Q 14.984375 17.484375 19.15625 11.84375 
Q 23.34375 6.203125 30.609375 6.203125 
Q 37.796875 6.203125 41.984375 11.859375 
Q 46.1875 17.53125 46.1875 27.296875 
Q 46.1875 37.015625 41.984375 42.703125 
Q 37.796875 48.390625 30.609375 48.390625 
z
M 30.609375 56 
Q 42.328125 56 49.015625 48.375 
Q 55.71875 40.765625 55.71875 27.296875 
Q 55.71875 13.875 49.015625 6.21875 
Q 42.328125 -1.421875 30.609375 -1.421875 
Q 18.84375 -1.421875 12.171875 6.21875 
Q 5.515625 13.875 5.515625 27.296875 
Q 5.515625 40.765625 12.171875 48.375 
Q 18.84375 56 30.609375 56 
z
" id="DejaVuSans-111"/>
       <path d="M 45.40625 27.984375 
Q 45.40625 37.75 41.375 43.109375 
Q 37.359375 48.484375 30.078125 48.484375 
Q 22.859375 48.484375 18.828125 43.109375 
Q 14.796875 37.75 14.796875 27.984375 
Q 14.796875 18.265625 18.828125 12.890625 
Q 22.859375 7.515625 30.078125 7.515625 
Q 37.359375 7.515625 41.375 12.890625 
Q 45.40625 18.265625 45.40625 27.984375 
z
M 54.390625 6.78125 
Q 54.390625 -7.171875 48.1875 -13.984375 
Q 42 -20.796875 29.203125 -20.796875 
Q 24.46875 -20.796875 20.265625 -20.09375 
Q 16.0625 -19.390625 12.109375 -17.921875 
L 12.109375 -9.1875 
Q 16.0625 -11.328125 19.921875 -12.34375 
Q 23.78125 -13.375 27.78125 -13.375 
Q 36.625 -13.375 41.015625 -8.765625 
Q 45.40625 -4.15625 45.40625 5.171875 
L 45.40625 9.625 
Q 42.625 4.78125 38.28125 2.390625 
Q 33.9375 0 27.875 0 
Q 17.828125 0 11.671875 7.65625 
Q 5.515625 15.328125 5.515625 27.984375 
Q 5.515625 40.671875 11.671875 48.328125 
Q 17.828125 56 27.875 56 
Q 33.9375 56 38.28125 53.609375 
Q 42.625 51.21875 45.40625 46.390625 
L 45.40625 54.6875 
L 54.390625 54.6875 
z
" id="DejaVuSans-103"/>
      </defs>
      <g style="fill:#555555;" transform="translate(206.020938 322.182437)scale(0.1 -0.1)">
       <use xlink:href="#DejaVuSans-105"/>
       <use x="27.783203" xlink:href="#DejaVuSans-110"/>
       <use x="91.162109" xlink:href="#DejaVuSans-99"/>
       <use x="146.142578" xlink:href="#DejaVuSans-111"/>
       <use x="207.324219" xlink:href="#DejaVuSans-110"/>
       <use x="270.703125" xlink:href="#DejaVuSans-103"/>
       <use x="334.179688" xlink:href="#DejaVuSans-114"/>
       <use x="375.292969" xlink:href="#DejaVuSans-117"/>
       <use x="438.671875" xlink:href="#DejaVuSans-101"/>
       <use x="500.195312" xlink:href="#DejaVuSans-110"/>
       <use x="563.574219" xlink:href="#DejaVuSans-116"/>
      </g>
     </g>
    </g>
    <g id="xtick_3">
     <g id="line2d_3">
      <g>
       <use style="fill:#555555;stroke:#555555;stroke-width:0.8;" x="355.2" xlink:href="#m1dcdafd543" y="307.584"/>
      </g>
     </g>
     <g id="text_3">
      <!-- congruent -->
      <g style="fill:#555555;" transform="translate(329.61875 322.182437)scale(0.1 -0.1)">
       <use xlink:href="#DejaVuSans-99"/>
       <use x="54.980469" xlink:href="#DejaVuSans-111"/>
       <use x="116.162109" xlink:href="#DejaVuSans-110"/>
       <use x="179.541016" xlink:href="#DejaVuSans-103"/>
       <use x="243.017578" xlink:href="#DejaVuSans-114"/>
       <use x="284.130859" xlink:href="#DejaVuSans-117"/>
       <use x="347.509766" xlink:href="#DejaVuSans-101"/>
       <use x="409.033203" xlink:href="#DejaVuSans-110"/>
       <use x="472.412109" xlink:href="#DejaVuSans-116"/>
      </g>
     </g>
    </g>
    <g id="text_4">
     <!-- trial type -->
     <defs>
      <path id="DejaVuSans-32"/>
      <path d="M 32.171875 -5.078125 
Q 28.375 -14.84375 24.75 -17.8125 
Q 21.140625 -20.796875 15.09375 -20.796875 
L 7.90625 -20.796875 
L 7.90625 -13.28125 
L 13.1875 -13.28125 
Q 16.890625 -13.28125 18.9375 -11.515625 
Q 21 -9.765625 23.484375 -3.21875 
L 25.09375 0.875 
L 2.984375 54.6875 
L 12.5 54.6875 
L 29.59375 11.921875 
L 46.6875 54.6875 
L 56.203125 54.6875 
z
" id="DejaVuSans-121"/>
      <path d="M 18.109375 8.203125 
L 18.109375 -20.796875 
L 9.078125 -20.796875 
L 9.078125 54.6875 
L 18.109375 54.6875 
L 18.109375 46.390625 
Q 20.953125 51.265625 25.265625 53.625 
Q 29.59375 56 35.59375 56 
Q 45.5625 56 51.78125 48.09375 
Q 58.015625 40.1875 58.015625 27.296875 
Q 58.015625 14.40625 51.78125 6.484375 
Q 45.5625 -1.421875 35.59375 -1.421875 
Q 29.59375 -1.421875 25.265625 0.953125 
Q 20.953125 3.328125 18.109375 8.203125 
z
M 48.6875 27.296875 
Q 48.6875 37.203125 44.609375 42.84375 
Q 40.53125 48.484375 33.40625 48.484375 
Q 26.265625 48.484375 22.1875 42.84375 
Q 18.109375 37.203125 18.109375 27.296875 
Q 18.109375 17.390625 22.1875 11.75 
Q 26.265625 6.109375 33.40625 6.109375 
Q 40.53125 6.109375 44.609375 11.75 
Q 48.6875 17.390625 48.6875 27.296875 
z
" id="DejaVuSans-112"/>
     </defs>
     <g style="fill:#555555;" transform="translate(209.019375 337.38025)scale(0.12 -0.12)">
      <use xlink:href="#DejaVuSans-116"/>
      <use x="39.208984" xlink:href="#DejaVuSans-114"/>
      <use x="80.322266" xlink:href="#DejaVuSans-105"/>
      <use x="108.105469" xlink:href="#DejaVuSans-97"/>
      <use x="169.384766" xlink:href="#DejaVuSans-108"/>
      <use x="197.167969" xlink:href="#DejaVuSans-32"/>
      <use x="228.955078" xlink:href="#DejaVuSans-116"/>
      <use x="268.164062" xlink:href="#DejaVuSans-121"/>
      <use x="327.34375" xlink:href="#DejaVuSans-112"/>
      <use x="390.820312" xlink:href="#DejaVuSans-101"/>
     </g>
    </g>
   </g>
   <g id="matplotlib.axis_2">
    <g id="ytick_1">
     <g id="line2d_4">
      <path clip-path="url(#pa534ed11a1)" d="M 57.6 307.584 
L 414.72 307.584 
" style="fill:none;stroke:#ffffff;stroke-linecap:square;stroke-width:0.8;"/>
     </g>
     <g id="line2d_5">
      <defs>
       <path d="M 0 0 
L -3.5 0 
" id="mf2eddf7215" style="stroke:#555555;stroke-width:0.8;"/>
      </defs>
      <g>
       <use style="fill:#555555;stroke:#555555;stroke-width:0.8;" x="57.6" xlink:href="#mf2eddf7215" y="307.584"/>
      </g>
     </g>
     <g id="text_5">
      <!-- 0.00 -->
      <defs>
       <path d="M 31.78125 66.40625 
Q 24.171875 66.40625 20.328125 58.90625 
Q 16.5 51.421875 16.5 36.375 
Q 16.5 21.390625 20.328125 13.890625 
Q 24.171875 6.390625 31.78125 6.390625 
Q 39.453125 6.390625 43.28125 13.890625 
Q 47.125 21.390625 47.125 36.375 
Q 47.125 51.421875 43.28125 58.90625 
Q 39.453125 66.40625 31.78125 66.40625 
z
M 31.78125 74.21875 
Q 44.046875 74.21875 50.515625 64.515625 
Q 56.984375 54.828125 56.984375 36.375 
Q 56.984375 17.96875 50.515625 8.265625 
Q 44.046875 -1.421875 31.78125 -1.421875 
Q 19.53125 -1.421875 13.0625 8.265625 
Q 6.59375 17.96875 6.59375 36.375 
Q 6.59375 54.828125 13.0625 64.515625 
Q 19.53125 74.21875 31.78125 74.21875 
z
" id="DejaVuSans-48"/>
       <path d="M 10.6875 12.40625 
L 21 12.40625 
L 21 0 
L 10.6875 0 
z
" id="DejaVuSans-46"/>
      </defs>
      <g style="fill:#555555;" transform="translate(28.334375 311.383219)scale(0.1 -0.1)">
       <use xlink:href="#DejaVuSans-48"/>
       <use x="63.623047" xlink:href="#DejaVuSans-46"/>
       <use x="95.410156" xlink:href="#DejaVuSans-48"/>
       <use x="159.033203" xlink:href="#DejaVuSans-48"/>
      </g>
     </g>
    </g>
    <g id="ytick_2">
     <g id="line2d_6">
      <path clip-path="url(#pa534ed11a1)" d="M 57.6 274.32 
L 414.72 274.32 
" style="fill:none;stroke:#ffffff;stroke-linecap:square;stroke-width:0.8;"/>
     </g>
     <g id="line2d_7">
      <g>
       <use style="fill:#555555;stroke:#555555;stroke-width:0.8;" x="57.6" xlink:href="#mf2eddf7215" y="274.32"/>
      </g>
     </g>
     <g id="text_6">
      <!-- 0.25 -->
      <defs>
       <path d="M 19.1875 8.296875 
L 53.609375 8.296875 
L 53.609375 0 
L 7.328125 0 
L 7.328125 8.296875 
Q 12.9375 14.109375 22.625 23.890625 
Q 32.328125 33.6875 34.8125 36.53125 
Q 39.546875 41.84375 41.421875 45.53125 
Q 43.3125 49.21875 43.3125 52.78125 
Q 43.3125 58.59375 39.234375 62.25 
Q 35.15625 65.921875 28.609375 65.921875 
Q 23.96875 65.921875 18.8125 64.3125 
Q 13.671875 62.703125 7.8125 59.421875 
L 7.8125 69.390625 
Q 13.765625 71.78125 18.9375 73 
Q 24.125 74.21875 28.421875 74.21875 
Q 39.75 74.21875 46.484375 68.546875 
Q 53.21875 62.890625 53.21875 53.421875 
Q 53.21875 48.921875 51.53125 44.890625 
Q 49.859375 40.875 45.40625 35.40625 
Q 44.1875 33.984375 37.640625 27.21875 
Q 31.109375 20.453125 19.1875 8.296875 
z
" id="DejaVuSans-50"/>
       <path d="M 10.796875 72.90625 
L 49.515625 72.90625 
L 49.515625 64.59375 
L 19.828125 64.59375 
L 19.828125 46.734375 
Q 21.96875 47.46875 24.109375 47.828125 
Q 26.265625 48.1875 28.421875 48.1875 
Q 40.625 48.1875 47.75 41.5 
Q 54.890625 34.8125 54.890625 23.390625 
Q 54.890625 11.625 47.5625 5.09375 
Q 40.234375 -1.421875 26.90625 -1.421875 
Q 22.3125 -1.421875 17.546875 -0.640625 
Q 12.796875 0.140625 7.71875 1.703125 
L 7.71875 11.625 
Q 12.109375 9.234375 16.796875 8.0625 
Q 21.484375 6.890625 26.703125 6.890625 
Q 35.15625 6.890625 40.078125 11.328125 
Q 45.015625 15.765625 45.015625 23.390625 
Q 45.015625 31 40.078125 35.4375 
Q 35.15625 39.890625 26.703125 39.890625 
Q 22.75 39.890625 18.8125 39.015625 
Q 14.890625 38.140625 10.796875 36.28125 
z
" id="DejaVuSans-53"/>
      </defs>
      <g style="fill:#555555;" transform="translate(28.334375 278.119219)scale(0.1 -0.1)">
       <use xlink:href="#DejaVuSans-48"/>
       <use x="63.623047" xlink:href="#DejaVuSans-46"/>
       <use x="95.410156" xlink:href="#DejaVuSans-50"/>
       <use x="159.033203" xlink:href="#DejaVuSans-53"/>
      </g>
     </g>
    </g>
    <g id="ytick_3">
     <g id="line2d_8">
      <path clip-path="url(#pa534ed11a1)" d="M 57.6 241.056 
L 414.72 241.056 
" style="fill:none;stroke:#ffffff;stroke-linecap:square;stroke-width:0.8;"/>
     </g>
     <g id="line2d_9">
      <g>
       <use style="fill:#555555;stroke:#555555;stroke-width:0.8;" x="57.6" xlink:href="#mf2eddf7215" y="241.056"/>
      </g>
     </g>
     <g id="text_7">
      <!-- 0.50 -->
      <g style="fill:#555555;" transform="translate(28.334375 244.855219)scale(0.1 -0.1)">
       <use xlink:href="#DejaVuSans-48"/>
       <use x="63.623047" xlink:href="#DejaVuSans-46"/>
       <use x="95.410156" xlink:href="#DejaVuSans-53"/>
       <use x="159.033203" xlink:href="#DejaVuSans-48"/>
      </g>
     </g>
    </g>
    <g id="ytick_4">
     <g id="line2d_10">
      <path clip-path="url(#pa534ed11a1)" d="M 57.6 207.792 
L 414.72 207.792 
" style="fill:none;stroke:#ffffff;stroke-linecap:square;stroke-width:0.8;"/>
     </g>
     <g id="line2d_11">
      <g>
       <use style="fill:#555555;stroke:#555555;stroke-width:0.8;" x="57.6" xlink:href="#mf2eddf7215" y="207.792"/>
      </g>
     </g>
     <g id="text_8">
      <!-- 0.75 -->
      <defs>
       <path d="M 8.203125 72.90625 
L 55.078125 72.90625 
L 55.078125 68.703125 
L 28.609375 0 
L 18.3125 0 
L 43.21875 64.59375 
L 8.203125 64.59375 
z
" id="DejaVuSans-55"/>
      </defs>
      <g style="fill:#555555;" transform="translate(28.334375 211.591219)scale(0.1 -0.1)">
       <use xlink:href="#DejaVuSans-48"/>
       <use x="63.623047" xlink:href="#DejaVuSans-46"/>
       <use x="95.410156" xlink:href="#DejaVuSans-55"/>
       <use x="159.033203" xlink:href="#DejaVuSans-53"/>
      </g>
     </g>
    </g>
    <g id="ytick_5">
     <g id="line2d_12">
      <path clip-path="url(#pa534ed11a1)" d="M 57.6 174.528 
L 414.72 174.528 
" style="fill:none;stroke:#ffffff;stroke-linecap:square;stroke-width:0.8;"/>
     </g>
     <g id="line2d_13">
      <g>
       <use style="fill:#555555;stroke:#555555;stroke-width:0.8;" x="57.6" xlink:href="#mf2eddf7215" y="174.528"/>
      </g>
     </g>
     <g id="text_9">
      <!-- 1.00 -->
      <defs>
       <path d="M 12.40625 8.296875 
L 28.515625 8.296875 
L 28.515625 63.921875 
L 10.984375 60.40625 
L 10.984375 69.390625 
L 28.421875 72.90625 
L 38.28125 72.90625 
L 38.28125 8.296875 
L 54.390625 8.296875 
L 54.390625 0 
L 12.40625 0 
z
" id="DejaVuSans-49"/>
      </defs>
      <g style="fill:#555555;" transform="translate(28.334375 178.327219)scale(0.1 -0.1)">
       <use xlink:href="#DejaVuSans-49"/>
       <use x="63.623047" xlink:href="#DejaVuSans-46"/>
       <use x="95.410156" xlink:href="#DejaVuSans-48"/>
       <use x="159.033203" xlink:href="#DejaVuSans-48"/>
      </g>
     </g>
    </g>
    <g id="ytick_6">
     <g id="line2d_14">
      <path clip-path="url(#pa534ed11a1)" d="M 57.6 141.264 
L 414.72 141.264 
" style="fill:none;stroke:#ffffff;stroke-linecap:square;stroke-width:0.8;"/>
     </g>
     <g id="line2d_15">
      <g>
       <use style="fill:#555555;stroke:#555555;stroke-width:0.8;" x="57.6" xlink:href="#mf2eddf7215" y="141.264"/>
      </g>
     </g>
     <g id="text_10">
      <!-- 1.25 -->
      <g style="fill:#555555;" transform="translate(28.334375 145.063219)scale(0.1 -0.1)">
       <use xlink:href="#DejaVuSans-49"/>
       <use x="63.623047" xlink:href="#DejaVuSans-46"/>
       <use x="95.410156" xlink:href="#DejaVuSans-50"/>
       <use x="159.033203" xlink:href="#DejaVuSans-53"/>
      </g>
     </g>
    </g>
    <g id="ytick_7">
     <g id="line2d_16">
      <path clip-path="url(#pa534ed11a1)" d="M 57.6 108 
L 414.72 108 
" style="fill:none;stroke:#ffffff;stroke-linecap:square;stroke-width:0.8;"/>
     </g>
     <g id="line2d_17">
      <g>
       <use style="fill:#555555;stroke:#555555;stroke-width:0.8;" x="57.6" xlink:href="#mf2eddf7215" y="108"/>
      </g>
     </g>
     <g id="text_11">
      <!-- 1.50 -->
      <g style="fill:#555555;" transform="translate(28.334375 111.799219)scale(0.1 -0.1)">
       <use xlink:href="#DejaVuSans-49"/>
       <use x="63.623047" xlink:href="#DejaVuSans-46"/>
       <use x="95.410156" xlink:href="#DejaVuSans-53"/>
       <use x="159.033203" xlink:href="#DejaVuSans-48"/>
      </g>
     </g>
    </g>
    <g id="ytick_8">
     <g id="line2d_18">
      <path clip-path="url(#pa534ed11a1)" d="M 57.6 74.736 
L 414.72 74.736 
" style="fill:none;stroke:#ffffff;stroke-linecap:square;stroke-width:0.8;"/>
     </g>
     <g id="line2d_19">
      <g>
       <use style="fill:#555555;stroke:#555555;stroke-width:0.8;" x="57.6" xlink:href="#mf2eddf7215" y="74.736"/>
      </g>
     </g>
     <g id="text_12">
      <!-- 1.75 -->
      <g style="fill:#555555;" transform="translate(28.334375 78.535219)scale(0.1 -0.1)">
       <use xlink:href="#DejaVuSans-49"/>
       <use x="63.623047" xlink:href="#DejaVuSans-46"/>
       <use x="95.410156" xlink:href="#DejaVuSans-55"/>
       <use x="159.033203" xlink:href="#DejaVuSans-53"/>
      </g>
     </g>
    </g>
    <g id="ytick_9">
     <g id="line2d_20">
      <path clip-path="url(#pa534ed11a1)" d="M 57.6 41.472 
L 414.72 41.472 
" style="fill:none;stroke:#ffffff;stroke-linecap:square;stroke-width:0.8;"/>
     </g>
     <g id="line2d_21">
      <g>
       <use style="fill:#555555;stroke:#555555;stroke-width:0.8;" x="57.6" xlink:href="#mf2eddf7215" y="41.472"/>
      </g>
     </g>
     <g id="text_13">
      <!-- 2.00 -->
      <g style="fill:#555555;" transform="translate(28.334375 45.271219)scale(0.1 -0.1)">
       <use xlink:href="#DejaVuSans-50"/>
       <use x="63.623047" xlink:href="#DejaVuSans-46"/>
       <use x="95.410156" xlink:href="#DejaVuSans-48"/>
       <use x="159.033203" xlink:href="#DejaVuSans-48"/>
      </g>
     </g>
    </g>
    <g id="text_14">
     <!-- response time (seconds) -->
     <defs>
      <path d="M 44.28125 53.078125 
L 44.28125 44.578125 
Q 40.484375 46.53125 36.375 47.5 
Q 32.28125 48.484375 27.875 48.484375 
Q 21.1875 48.484375 17.84375 46.4375 
Q 14.5 44.390625 14.5 40.28125 
Q 14.5 37.15625 16.890625 35.375 
Q 19.28125 33.59375 26.515625 31.984375 
L 29.59375 31.296875 
Q 39.15625 29.25 43.1875 25.515625 
Q 47.21875 21.78125 47.21875 15.09375 
Q 47.21875 7.46875 41.1875 3.015625 
Q 35.15625 -1.421875 24.609375 -1.421875 
Q 20.21875 -1.421875 15.453125 -0.5625 
Q 10.6875 0.296875 5.421875 2 
L 5.421875 11.28125 
Q 10.40625 8.6875 15.234375 7.390625 
Q 20.0625 6.109375 24.8125 6.109375 
Q 31.15625 6.109375 34.5625 8.28125 
Q 37.984375 10.453125 37.984375 14.40625 
Q 37.984375 18.0625 35.515625 20.015625 
Q 33.0625 21.96875 24.703125 23.78125 
L 21.578125 24.515625 
Q 13.234375 26.265625 9.515625 29.90625 
Q 5.8125 33.546875 5.8125 39.890625 
Q 5.8125 47.609375 11.28125 51.796875 
Q 16.75 56 26.8125 56 
Q 31.78125 56 36.171875 55.265625 
Q 40.578125 54.546875 44.28125 53.078125 
z
" id="DejaVuSans-115"/>
      <path d="M 52 44.1875 
Q 55.375 50.25 60.0625 53.125 
Q 64.75 56 71.09375 56 
Q 79.640625 56 84.28125 50.015625 
Q 88.921875 44.046875 88.921875 33.015625 
L 88.921875 0 
L 79.890625 0 
L 79.890625 32.71875 
Q 79.890625 40.578125 77.09375 44.375 
Q 74.3125 48.1875 68.609375 48.1875 
Q 61.625 48.1875 57.5625 43.546875 
Q 53.515625 38.921875 53.515625 30.90625 
L 53.515625 0 
L 44.484375 0 
L 44.484375 32.71875 
Q 44.484375 40.625 41.703125 44.40625 
Q 38.921875 48.1875 33.109375 48.1875 
Q 26.21875 48.1875 22.15625 43.53125 
Q 18.109375 38.875 18.109375 30.90625 
L 18.109375 0 
L 9.078125 0 
L 9.078125 54.6875 
L 18.109375 54.6875 
L 18.109375 46.1875 
Q 21.1875 51.21875 25.484375 53.609375 
Q 29.78125 56 35.6875 56 
Q 41.65625 56 45.828125 52.96875 
Q 50 49.953125 52 44.1875 
z
" id="DejaVuSans-109"/>
      <path d="M 31 75.875 
Q 24.46875 64.65625 21.28125 53.65625 
Q 18.109375 42.671875 18.109375 31.390625 
Q 18.109375 20.125 21.3125 9.0625 
Q 24.515625 -2 31 -13.1875 
L 23.1875 -13.1875 
Q 15.875 -1.703125 12.234375 9.375 
Q 8.59375 20.453125 8.59375 31.390625 
Q 8.59375 42.28125 12.203125 53.3125 
Q 15.828125 64.359375 23.1875 75.875 
z
" id="DejaVuSans-40"/>
      <path d="M 45.40625 46.390625 
L 45.40625 75.984375 
L 54.390625 75.984375 
L 54.390625 0 
L 45.40625 0 
L 45.40625 8.203125 
Q 42.578125 3.328125 38.25 0.953125 
Q 33.9375 -1.421875 27.875 -1.421875 
Q 17.96875 -1.421875 11.734375 6.484375 
Q 5.515625 14.40625 5.515625 27.296875 
Q 5.515625 40.1875 11.734375 48.09375 
Q 17.96875 56 27.875 56 
Q 33.9375 56 38.25 53.625 
Q 42.578125 51.265625 45.40625 46.390625 
z
M 14.796875 27.296875 
Q 14.796875 17.390625 18.875 11.75 
Q 22.953125 6.109375 30.078125 6.109375 
Q 37.203125 6.109375 41.296875 11.75 
Q 45.40625 17.390625 45.40625 27.296875 
Q 45.40625 37.203125 41.296875 42.84375 
Q 37.203125 48.484375 30.078125 48.484375 
Q 22.953125 48.484375 18.875 42.84375 
Q 14.796875 37.203125 14.796875 27.296875 
z
" id="DejaVuSans-100"/>
      <path d="M 8.015625 75.875 
L 15.828125 75.875 
Q 23.140625 64.359375 26.78125 53.3125 
Q 30.421875 42.28125 30.421875 31.390625 
Q 30.421875 20.453125 26.78125 9.375 
Q 23.140625 -1.703125 15.828125 -13.1875 
L 8.015625 -13.1875 
Q 14.5 -2 17.703125 9.0625 
Q 20.90625 20.125 20.90625 31.390625 
Q 20.90625 42.671875 17.703125 53.65625 
Q 14.5 64.65625 8.015625 75.875 
z
" id="DejaVuSans-41"/>
     </defs>
     <g style="fill:#555555;" transform="translate(21.83875 248.486437)rotate(-90)scale(0.12 -0.12)">
      <use xlink:href="#DejaVuSans-114"/>
      <use x="41.082031" xlink:href="#DejaVuSans-101"/>
      <use x="102.605469" xlink:href="#DejaVuSans-115"/>
      <use x="154.705078" xlink:href="#DejaVuSans-112"/>
      <use x="218.181641" xlink:href="#DejaVuSans-111"/>
      <use x="279.363281" xlink:href="#DejaVuSans-110"/>
      <use x="342.742188" xlink:href="#DejaVuSans-115"/>
      <use x="394.841797" xlink:href="#DejaVuSans-101"/>
      <use x="456.365234" xlink:href="#DejaVuSans-32"/>
      <use x="488.152344" xlink:href="#DejaVuSans-116"/>
      <use x="527.361328" xlink:href="#DejaVuSans-105"/>
      <use x="555.144531" xlink:href="#DejaVuSans-109"/>
      <use x="652.556641" xlink:href="#DejaVuSans-101"/>
      <use x="714.080078" xlink:href="#DejaVuSans-32"/>
      <use x="745.867188" xlink:href="#DejaVuSans-40"/>
      <use x="784.880859" xlink:href="#DejaVuSans-115"/>
      <use x="836.980469" xlink:href="#DejaVuSans-101"/>
      <use x="898.503906" xlink:href="#DejaVuSans-99"/>
      <use x="953.484375" xlink:href="#DejaVuSans-111"/>
      <use x="1014.666016" xlink:href="#DejaVuSans-110"/>
      <use x="1078.044922" xlink:href="#DejaVuSans-100"/>
      <use x="1141.521484" xlink:href="#DejaVuSans-115"/>
      <use x="1193.621094" xlink:href="#DejaVuSans-41"/>
     </g>
    </g>
   </g>
   <g id="PathCollection_1"/>
   <g id="PathCollection_2"/>
   <g id="patch_3">
    <path d="M 57.6 307.584 
L 57.6 41.472 
" style="fill:none;stroke:#ffffff;stroke-linecap:square;stroke-linejoin:miter;"/>
   </g>
   <g id="patch_4">
    <path d="M 414.72 307.584 
L 414.72 41.472 
" style="fill:none;stroke:#ffffff;stroke-linecap:square;stroke-linejoin:miter;"/>
   </g>
   <g id="patch_5">
    <path d="M 57.6 307.584 
L 414.72 307.584 
" style="fill:none;stroke:#ffffff;stroke-linecap:square;stroke-linejoin:miter;"/>
   </g>
   <g id="patch_6">
    <path d="M 57.6 41.472 
L 414.72 41.472 
" style="fill:none;stroke:#ffffff;stroke-linecap:square;stroke-linejoin:miter;"/>
   </g>
   <g id="PathCollection_3">
    <defs>
     <path d="M 0 3 
C 0.795609 3 1.55874 2.683901 2.12132 2.12132 
C 2.683901 1.55874 3 0.795609 3 0 
C 3 -0.795609 2.683901 -1.55874 2.12132 -2.12132 
C 1.55874 -2.683901 0.795609 -3 0 -3 
C -0.795609 -3 -1.55874 -2.683901 -2.12132 -2.12132 
C -2.683901 -1.55874 -3 -0.795609 -3 0 
C -3 0.795609 -2.683901 1.55874 -2.12132 2.12132 
C -1.55874 2.683901 -0.795609 3 0 3 
z
" id="C0_0_957f7dc277"/>
    </defs>
    <g clip-path="url(#pa534ed11a1)">
     <use style="fill:#ff7c00;" x="117.12" xlink:href="#C0_0_957f7dc277" y="249.70464"/>
    </g>
    <g clip-path="url(#pa534ed11a1)">
     <use style="fill:#ff7c00;" x="114.313262" xlink:href="#C0_0_957f7dc277" y="248.107968"/>
    </g>
    <g clip-path="url(#pa534ed11a1)">
     <use style="fill:#ff7c00;" x="120.595704" xlink:href="#C0_0_957f7dc277" y="247.974912"/>
    </g>
    <g clip-path="url(#pa534ed11a1)">
     <use style="fill:#ff7c00;" x="108.08379" xlink:href="#C0_0_957f7dc277" y="247.841856"/>
    </g>
    <g clip-path="url(#pa534ed11a1)">
     <use style="fill:#ff7c00;" x="126.735878" xlink:href="#C0_0_957f7dc277" y="247.575744"/>
    </g>
    <g clip-path="url(#pa534ed11a1)">
     <use style="fill:#ff7c00;" x="103.415211" xlink:href="#C0_0_957f7dc277" y="246.644352"/>
    </g>
    <g clip-path="url(#pa534ed11a1)">
     <use style="fill:#ff7c00;" x="117.12" xlink:href="#C0_0_957f7dc277" y="246.511296"/>
    </g>
    <g clip-path="url(#pa534ed11a1)">
     <use style="fill:#ff7c00;" x="131.404457" xlink:href="#C0_0_957f7dc277" y="246.37824"/>
    </g>
    <g clip-path="url(#pa534ed11a1)">
     <use style="fill:#ff7c00;" x="110.890528" xlink:href="#C0_0_957f7dc277" y="246.245184"/>
    </g>
    <g clip-path="url(#pa534ed11a1)">
     <use style="fill:#ff7c00;" x="97.275037" xlink:href="#C0_0_957f7dc277" y="246.245184"/>
    </g>
    <g clip-path="url(#pa534ed11a1)">
     <use style="fill:#ff7c00;" x="137.686899" xlink:href="#C0_0_957f7dc277" y="246.245184"/>
    </g>
    <g clip-path="url(#pa534ed11a1)">
     <use style="fill:#ff7c00;" x="122.753555" xlink:href="#C0_0_957f7dc277" y="245.71296"/>
    </g>
    <g clip-path="url(#pa534ed11a1)">
     <use style="fill:#ff7c00;" x="91.429779" xlink:href="#C0_0_957f7dc277" y="245.579904"/>
    </g>
    <g clip-path="url(#pa534ed11a1)">
     <use style="fill:#ff7c00;" x="143.320454" xlink:href="#C0_0_957f7dc277" y="245.446848"/>
    </g>
    <g clip-path="url(#pa534ed11a1)">
     <use style="fill:#ff7c00;" x="85.147336" xlink:href="#C0_0_957f7dc277" y="245.446848"/>
    </g>
    <g clip-path="url(#pa534ed11a1)">
     <use style="fill:#ff7c00;" x="117.12" xlink:href="#C0_0_957f7dc277" y="244.515456"/>
    </g>
    <g clip-path="url(#pa534ed11a1)">
     <use style="fill:#ff7c00;" x="110.979826" xlink:href="#C0_0_957f7dc277" y="244.116288"/>
    </g>
    <g clip-path="url(#pa534ed11a1)">
     <use style="fill:#ff7c00;" x="124.288098" xlink:href="#C0_0_957f7dc277" y="243.983232"/>
    </g>
    <g clip-path="url(#pa534ed11a1)">
     <use style="fill:#ff7c00;" x="104.750354" xlink:href="#C0_0_957f7dc277" y="243.850176"/>
    </g>
    <g clip-path="url(#pa534ed11a1)">
     <use style="fill:#ff7c00;" x="115.585457" xlink:href="#C0_0_957f7dc277" y="242.785728"/>
    </g>
    <g clip-path="url(#pa534ed11a1)">
     <use style="fill:#ff7c00;" x="127.887945" xlink:href="#C0_0_957f7dc277" y="242.519616"/>
    </g>
    <g clip-path="url(#pa534ed11a1)">
     <use style="fill:#ff7c00;" x="121.430715" xlink:href="#C0_0_957f7dc277" y="242.120448"/>
    </g>
    <g clip-path="url(#pa534ed11a1)">
     <use style="fill:#ff7c00;" x="109.951902" xlink:href="#C0_0_957f7dc277" y="241.987392"/>
    </g>
    <g clip-path="url(#pa534ed11a1)">
     <use style="fill:#ff7c00;" x="104.318346" xlink:href="#C0_0_957f7dc277" y="241.189056"/>
    </g>
    <g clip-path="url(#pa534ed11a1)">
     <use style="fill:#ff7c00;" x="131.487792" xlink:href="#C0_0_957f7dc277" y="241.056"/>
    </g>
    <g clip-path="url(#pa534ed11a1)">
     <use style="fill:#ff7c00;" x="98.035904" xlink:href="#C0_0_957f7dc277" y="241.056"/>
    </g>
    <g clip-path="url(#pa534ed11a1)">
     <use style="fill:#ff7c00;" x="116.762137" xlink:href="#C0_0_957f7dc277" y="240.922944"/>
    </g>
    <g clip-path="url(#pa534ed11a1)">
     <use style="fill:#ff7c00;" x="137.717264" xlink:href="#C0_0_957f7dc277" y="240.789888"/>
    </g>
    <g clip-path="url(#pa534ed11a1)">
     <use style="fill:#ff7c00;" x="121.430715" xlink:href="#C0_0_957f7dc277" y="239.72544"/>
    </g>
    <g clip-path="url(#pa534ed11a1)">
     <use style="fill:#ff7c00;" x="113.955399" xlink:href="#C0_0_957f7dc277" y="239.326272"/>
    </g>
    <g clip-path="url(#pa534ed11a1)">
     <use style="fill:#ff7c00;" x="107.725926" xlink:href="#C0_0_957f7dc277" y="239.06016"/>
    </g>
    <g clip-path="url(#pa534ed11a1)">
     <use style="fill:#ff7c00;" x="127.275973" xlink:href="#C0_0_957f7dc277" y="239.06016"/>
    </g>
    <g clip-path="url(#pa534ed11a1)">
     <use style="fill:#ff7c00;" x="101.712998" xlink:href="#C0_0_957f7dc277" y="238.527936"/>
    </g>
    <g clip-path="url(#pa534ed11a1)">
     <use style="fill:#ff7c00;" x="132.909529" xlink:href="#C0_0_957f7dc277" y="238.261824"/>
    </g>
    <g clip-path="url(#pa534ed11a1)">
     <use style="fill:#ff7c00;" x="117.12" xlink:href="#C0_0_957f7dc277" y="236.39904"/>
    </g>
    <g clip-path="url(#pa534ed11a1)">
     <use style="fill:#ff7c00;" x="111.486445" xlink:href="#C0_0_957f7dc277" y="235.600704"/>
    </g>
    <g clip-path="url(#pa534ed11a1)">
     <use style="fill:#ff7c00;" x="117.12" xlink:href="#C0_0_957f7dc277" y="231.875136"/>
    </g>
    <g clip-path="url(#pa534ed11a1)">
     <use style="fill:#ff7c00;" x="112.924982" xlink:href="#C0_0_957f7dc277" y="230.544576"/>
    </g>
    <g clip-path="url(#pa534ed11a1)">
     <use style="fill:#ff7c00;" x="117.12" xlink:href="#C0_0_957f7dc277" y="229.08096"/>
    </g>
    <g clip-path="url(#pa534ed11a1)">
     <use style="fill:#ff7c00;" x="113.520153" xlink:href="#C0_0_957f7dc277" y="227.617344"/>
    </g>
   </g>
   <g id="PathCollection_4">
    <defs>
     <path d="M 0 3 
C 0.795609 3 1.55874 2.683901 2.12132 2.12132 
C 2.683901 1.55874 3 0.795609 3 0 
C 3 -0.795609 2.683901 -1.55874 2.12132 -2.12132 
C 1.55874 -2.683901 0.795609 -3 0 -3 
C -0.795609 -3 -1.55874 -2.683901 -2.12132 -2.12132 
C -2.683901 -1.55874 -3 -0.795609 -3 0 
C -3 0.795609 -2.683901 1.55874 -2.12132 2.12132 
C -1.55874 2.683901 -0.795609 3 0 3 
z
" id="C1_0_714dd9b3d2"/>
    </defs>
    <g clip-path="url(#pa534ed11a1)">
     <use style="fill:#023eff;" x="236.16" xlink:href="#C1_0_714dd9b3d2" y="245.446848"/>
    </g>
    <g clip-path="url(#pa534ed11a1)">
     <use style="fill:#ff7c00;" x="236.16" xlink:href="#C1_0_714dd9b3d2" y="237.862656"/>
    </g>
    <g clip-path="url(#pa534ed11a1)">
     <use style="fill:#023eff;" x="229.930528" xlink:href="#C1_0_714dd9b3d2" y="237.596544"/>
    </g>
    <g clip-path="url(#pa534ed11a1)">
     <use style="fill:#ff7c00;" x="242.005258" xlink:href="#C1_0_714dd9b3d2" y="237.197376"/>
    </g>
    <g clip-path="url(#pa534ed11a1)">
     <use style="fill:#ff7c00;" x="248.287701" xlink:href="#C1_0_714dd9b3d2" y="237.06432"/>
    </g>
    <g clip-path="url(#pa534ed11a1)">
     <use style="fill:#ff7c00;" x="223.917599" xlink:href="#C1_0_714dd9b3d2" y="237.06432"/>
    </g>
    <g clip-path="url(#pa534ed11a1)">
     <use style="fill:#ff7c00;" x="254.587701" xlink:href="#C1_0_714dd9b3d2" y="237.06432"/>
    </g>
    <g clip-path="url(#pa534ed11a1)">
     <use style="fill:#ff7c00;" x="217.904671" xlink:href="#C1_0_714dd9b3d2" y="236.532096"/>
    </g>
    <g clip-path="url(#pa534ed11a1)">
     <use style="fill:#ff7c00;" x="236.16" xlink:href="#C1_0_714dd9b3d2" y="235.999872"/>
    </g>
    <g clip-path="url(#pa534ed11a1)">
     <use style="fill:#ff7c00;" x="241.214823" xlink:href="#C1_0_714dd9b3d2" y="234.935424"/>
    </g>
    <g clip-path="url(#pa534ed11a1)">
     <use style="fill:#ff7c00;" x="231.105177" xlink:href="#C1_0_714dd9b3d2" y="234.935424"/>
    </g>
    <g clip-path="url(#pa534ed11a1)">
     <use style="fill:#ff7c00;" x="247.497265" xlink:href="#C1_0_714dd9b3d2" y="234.802368"/>
    </g>
    <g clip-path="url(#pa534ed11a1)">
     <use style="fill:#ff7c00;" x="224.822735" xlink:href="#C1_0_714dd9b3d2" y="234.802368"/>
    </g>
    <g clip-path="url(#pa534ed11a1)">
     <use style="fill:#ff7c00;" x="253.726738" xlink:href="#C1_0_714dd9b3d2" y="234.536256"/>
    </g>
    <g clip-path="url(#pa534ed11a1)">
     <use style="fill:#ff7c00;" x="218.593262" xlink:href="#C1_0_714dd9b3d2" y="234.536256"/>
    </g>
    <g clip-path="url(#pa534ed11a1)">
     <use style="fill:#ff7c00;" x="236.16" xlink:href="#C1_0_714dd9b3d2" y="233.870976"/>
    </g>
    <g clip-path="url(#pa534ed11a1)">
     <use style="fill:#ff7c00;" x="259.571996" xlink:href="#C1_0_714dd9b3d2" y="233.870976"/>
    </g>
    <g clip-path="url(#pa534ed11a1)">
     <use style="fill:#ff7c00;" x="212.959707" xlink:href="#C1_0_714dd9b3d2" y="233.73792"/>
    </g>
    <g clip-path="url(#pa534ed11a1)">
     <use style="fill:#ff7c00;" x="206.677265" xlink:href="#C1_0_714dd9b3d2" y="233.604864"/>
    </g>
    <g clip-path="url(#pa534ed11a1)">
     <use style="fill:#ff7c00;" x="232.560153" xlink:href="#C1_0_714dd9b3d2" y="232.40736"/>
    </g>
    <g clip-path="url(#pa534ed11a1)">
     <use style="fill:#ff7c00;" x="238.405412" xlink:href="#C1_0_714dd9b3d2" y="231.74208"/>
    </g>
    <g clip-path="url(#pa534ed11a1)">
     <use style="fill:#ff7c00;" x="244.41834" xlink:href="#C1_0_714dd9b3d2" y="231.209856"/>
    </g>
    <g clip-path="url(#pa534ed11a1)">
     <use style="fill:#ff7c00;" x="228.365135" xlink:href="#C1_0_714dd9b3d2" y="231.0768"/>
    </g>
    <g clip-path="url(#pa534ed11a1)">
     <use style="fill:#ff7c00;" x="222.352206" xlink:href="#C1_0_714dd9b3d2" y="230.544576"/>
    </g>
    <g clip-path="url(#pa534ed11a1)">
     <use style="fill:#ff7c00;" x="235.598674" xlink:href="#C1_0_714dd9b3d2" y="230.145408"/>
    </g>
    <g clip-path="url(#pa534ed11a1)">
     <use style="fill:#ff7c00;" x="249.473163" xlink:href="#C1_0_714dd9b3d2" y="230.145408"/>
    </g>
    <g clip-path="url(#pa534ed11a1)">
     <use style="fill:#ff7c00;" x="236.16" xlink:href="#C1_0_714dd9b3d2" y="228.282624"/>
    </g>
    <g clip-path="url(#pa534ed11a1)">
     <use style="fill:#ff7c00;" x="231.491422" xlink:href="#C1_0_714dd9b3d2" y="227.08512"/>
    </g>
    <g clip-path="url(#pa534ed11a1)">
     <use style="fill:#ff7c00;" x="240.828578" xlink:href="#C1_0_714dd9b3d2" y="227.08512"/>
    </g>
    <g clip-path="url(#pa534ed11a1)">
     <use style="fill:#ff7c00;" x="225.478493" xlink:href="#C1_0_714dd9b3d2" y="226.552896"/>
    </g>
    <g clip-path="url(#pa534ed11a1)">
     <use style="fill:#ff7c00;" x="236.16" xlink:href="#C1_0_714dd9b3d2" y="225.08928"/>
    </g>
    <g clip-path="url(#pa534ed11a1)">
     <use style="fill:#ff7c00;" x="242.46" xlink:href="#C1_0_714dd9b3d2" y="225.08928"/>
    </g>
    <g clip-path="url(#pa534ed11a1)">
     <use style="fill:#ff7c00;" x="229.930528" xlink:href="#C1_0_714dd9b3d2" y="224.823168"/>
    </g>
    <g clip-path="url(#pa534ed11a1)">
     <use style="fill:#ff7c00;" x="248.689472" xlink:href="#C1_0_714dd9b3d2" y="224.823168"/>
    </g>
    <g clip-path="url(#pa534ed11a1)">
     <use style="fill:#ff7c00;" x="223.630528" xlink:href="#C1_0_714dd9b3d2" y="224.823168"/>
    </g>
    <g clip-path="url(#pa534ed11a1)">
     <use style="fill:#ff7c00;" x="253.358051" xlink:href="#C1_0_714dd9b3d2" y="223.625664"/>
    </g>
    <g clip-path="url(#pa534ed11a1)">
     <use style="fill:#ff7c00;" x="236.16" xlink:href="#C1_0_714dd9b3d2" y="221.629824"/>
    </g>
    <g clip-path="url(#pa534ed11a1)">
     <use style="fill:#ff7c00;" x="236.16" xlink:href="#C1_0_714dd9b3d2" y="206.594496"/>
    </g>
    <g clip-path="url(#pa534ed11a1)">
     <use style="fill:#ff7c00;" x="236.16" xlink:href="#C1_0_714dd9b3d2" y="188.764992"/>
    </g>
    <g clip-path="url(#pa534ed11a1)">
     <use style="fill:#ff7c00;" x="236.16" xlink:href="#C1_0_714dd9b3d2" y="179.318016"/>
    </g>
   </g>
   <g id="PathCollection_5">
    <defs>
     <path d="M 0 3 
C 0.795609 3 1.55874 2.683901 2.12132 2.12132 
C 2.683901 1.55874 3 0.795609 3 0 
C 3 -0.795609 2.683901 -1.55874 2.12132 -2.12132 
C 1.55874 -2.683901 0.795609 -3 0 -3 
C -0.795609 -3 -1.55874 -2.683901 -2.12132 -2.12132 
C -2.683901 -1.55874 -3 -0.795609 -3 0 
C -3 0.795609 -2.683901 1.55874 -2.12132 2.12132 
C -1.55874 2.683901 -0.795609 3 0 3 
z
" id="C2_0_d12395698a"/>
    </defs>
    <g clip-path="url(#pa534ed11a1)">
     <use style="fill:#ff7c00;" x="355.2" xlink:href="#C2_0_d12395698a" y="250.36992"/>
    </g>
    <g clip-path="url(#pa534ed11a1)">
     <use style="fill:#ff7c00;" x="348.9" xlink:href="#C2_0_d12395698a" y="250.36992"/>
    </g>
    <g clip-path="url(#pa534ed11a1)">
     <use style="fill:#ff7c00;" x="360.254823" xlink:href="#C2_0_d12395698a" y="249.305472"/>
    </g>
    <g clip-path="url(#pa534ed11a1)">
     <use style="fill:#ff7c00;" x="353.665457" xlink:href="#C2_0_d12395698a" y="248.640192"/>
    </g>
    <g clip-path="url(#pa534ed11a1)">
     <use style="fill:#ff7c00;" x="347.365457" xlink:href="#C2_0_d12395698a" y="248.640192"/>
    </g>
    <g clip-path="url(#pa534ed11a1)">
     <use style="fill:#ff7c00;" x="363.061561" xlink:href="#C2_0_d12395698a" y="247.7088"/>
    </g>
    <g clip-path="url(#pa534ed11a1)">
     <use style="fill:#ff7c00;" x="342.310634" xlink:href="#C2_0_d12395698a" y="247.575744"/>
    </g>
    <g clip-path="url(#pa534ed11a1)">
     <use style="fill:#ff7c00;" x="369.201735" xlink:href="#C2_0_d12395698a" y="247.309632"/>
    </g>
    <g clip-path="url(#pa534ed11a1)">
     <use style="fill:#ff7c00;" x="356.472195" xlink:href="#C2_0_d12395698a" y="247.04352"/>
    </g>
    <g clip-path="url(#pa534ed11a1)">
     <use style="fill:#ff7c00;" x="350.83864" xlink:href="#C2_0_d12395698a" y="246.245184"/>
    </g>
    <g clip-path="url(#pa534ed11a1)">
     <use style="fill:#ff7c00;" x="338.710787" xlink:href="#C2_0_d12395698a" y="246.112128"/>
    </g>
    <g clip-path="url(#pa534ed11a1)">
     <use style="fill:#ff7c00;" x="373.870313" xlink:href="#C2_0_d12395698a" y="246.112128"/>
    </g>
    <g clip-path="url(#pa534ed11a1)">
     <use style="fill:#ff7c00;" x="332.410787" xlink:href="#C2_0_d12395698a" y="246.112128"/>
    </g>
    <g clip-path="url(#pa534ed11a1)">
     <use style="fill:#ff7c00;" x="361.527018" xlink:href="#C2_0_d12395698a" y="245.979072"/>
    </g>
    <g clip-path="url(#pa534ed11a1)">
     <use style="fill:#ff7c00;" x="344.850961" xlink:href="#C2_0_d12395698a" y="245.71296"/>
    </g>
    <g clip-path="url(#pa534ed11a1)">
     <use style="fill:#ff7c00;" x="367.539946" xlink:href="#C2_0_d12395698a" y="245.446848"/>
    </g>
    <g clip-path="url(#pa534ed11a1)">
     <use style="fill:#ff7c00;" x="379.503869" xlink:href="#C2_0_d12395698a" y="245.313792"/>
    </g>
    <g clip-path="url(#pa534ed11a1)">
     <use style="fill:#ff7c00;" x="355.2" xlink:href="#C2_0_d12395698a" y="242.918784"/>
    </g>
    <g clip-path="url(#pa534ed11a1)">
     <use style="fill:#ff7c00;" x="348.917558" xlink:href="#C2_0_d12395698a" y="242.785728"/>
    </g>
    <g clip-path="url(#pa534ed11a1)">
     <use style="fill:#ff7c00;" x="360.833555" xlink:href="#C2_0_d12395698a" y="242.120448"/>
    </g>
    <g clip-path="url(#pa534ed11a1)">
     <use style="fill:#ff7c00;" x="343.284002" xlink:href="#C2_0_d12395698a" y="241.987392"/>
    </g>
    <g clip-path="url(#pa534ed11a1)">
     <use style="fill:#ff7c00;" x="352.517404" xlink:href="#C2_0_d12395698a" y="241.322112"/>
    </g>
    <g clip-path="url(#pa534ed11a1)">
     <use style="fill:#ff7c00;" x="365.028574" xlink:href="#C2_0_d12395698a" y="240.789888"/>
    </g>
    <g clip-path="url(#pa534ed11a1)">
     <use style="fill:#ff7c00;" x="371.311016" xlink:href="#C2_0_d12395698a" y="240.656832"/>
    </g>
    <g clip-path="url(#pa534ed11a1)">
     <use style="fill:#ff7c00;" x="356.712423" xlink:href="#C2_0_d12395698a" y="239.991552"/>
    </g>
    <g clip-path="url(#pa534ed11a1)">
     <use style="fill:#ff7c00;" x="349.710666" xlink:href="#C2_0_d12395698a" y="239.72544"/>
    </g>
    <g clip-path="url(#pa534ed11a1)">
     <use style="fill:#ff7c00;" x="355.2" xlink:href="#C2_0_d12395698a" y="237.463488"/>
    </g>
    <g clip-path="url(#pa534ed11a1)">
     <use style="fill:#ff7c00;" x="348.970528" xlink:href="#C2_0_d12395698a" y="237.197376"/>
    </g>
    <g clip-path="url(#pa534ed11a1)">
     <use style="fill:#ff7c00;" x="361.429472" xlink:href="#C2_0_d12395698a" y="237.197376"/>
    </g>
    <g clip-path="url(#pa534ed11a1)">
     <use style="fill:#ff7c00;" x="342.741055" xlink:href="#C2_0_d12395698a" y="236.931264"/>
    </g>
    <g clip-path="url(#pa534ed11a1)">
     <use style="fill:#ff7c00;" x="367.274731" xlink:href="#C2_0_d12395698a" y="236.532096"/>
    </g>
    <g clip-path="url(#pa534ed11a1)">
     <use style="fill:#ff7c00;" x="355.2" xlink:href="#C2_0_d12395698a" y="234.004032"/>
    </g>
    <g clip-path="url(#pa534ed11a1)">
     <use style="fill:#ff7c00;" x="349.059826" xlink:href="#C2_0_d12395698a" y="233.604864"/>
    </g>
    <g clip-path="url(#pa534ed11a1)">
     <use style="fill:#ff7c00;" x="361.212928" xlink:href="#C2_0_d12395698a" y="233.471808"/>
    </g>
    <g clip-path="url(#pa534ed11a1)">
     <use style="fill:#ff7c00;" x="367.512928" xlink:href="#C2_0_d12395698a" y="233.471808"/>
    </g>
    <g clip-path="url(#pa534ed11a1)">
     <use style="fill:#ff7c00;" x="344.005003" xlink:href="#C2_0_d12395698a" y="232.540416"/>
    </g>
    <g clip-path="url(#pa534ed11a1)">
     <use style="fill:#ff7c00;" x="355.2" xlink:href="#C2_0_d12395698a" y="226.153728"/>
    </g>
    <g clip-path="url(#pa534ed11a1)">
     <use style="fill:#ff7c00;" x="355.2" xlink:href="#C2_0_d12395698a" y="223.891776"/>
    </g>
    <g clip-path="url(#pa534ed11a1)">
     <use style="fill:#ff7c00;" x="355.2" xlink:href="#C2_0_d12395698a" y="218.43648"/>
    </g>
    <g clip-path="url(#pa534ed11a1)">
     <use style="fill:#ff7c00;" x="355.2" xlink:href="#C2_0_d12395698a" y="207.792"/>
    </g>
   </g>
   <g id="legend_1">
    <g id="patch_7">
     <path d="M 331.198125 78.82825 
L 407.72 78.82825 
Q 409.72 78.82825 409.72 76.82825 
L 409.72 48.472 
Q 409.72 46.472 407.72 46.472 
L 331.198125 46.472 
Q 329.198125 46.472 329.198125 48.472 
L 329.198125 76.82825 
Q 329.198125 78.82825 331.198125 78.82825 
z
" style="fill:#e5e5e5;opacity:0.8;stroke:#cccccc;stroke-linejoin:miter;stroke-width:0.5;"/>
    </g>
    <g id="PathCollection_6">
     <defs>
      <path d="M 0 3.872983 
C 1.027127 3.872983 2.012324 3.464901 2.738613 2.738613 
C 3.464901 2.012324 3.872983 1.027127 3.872983 0 
C 3.872983 -1.027127 3.464901 -2.012324 2.738613 -2.738613 
C 2.012324 -3.464901 1.027127 -3.872983 0 -3.872983 
C -1.027127 -3.872983 -2.012324 -3.464901 -2.738613 -2.738613 
C -3.464901 -2.012324 -3.872983 -1.027127 -3.872983 0 
C -3.872983 1.027127 -3.464901 2.012324 -2.738613 2.738613 
C -2.012324 3.464901 -1.027127 3.872983 0 3.872983 
z
" id="m53dbcfdfbe" style="stroke:#023eff;stroke-width:0.5;"/>
     </defs>
     <g>
      <use style="fill:#023eff;stroke:#023eff;stroke-width:0.5;" x="343.198125" xlink:href="#m53dbcfdfbe" y="55.445437"/>
     </g>
    </g>
    <g id="text_15">
     <!-- incorrect -->
     <g transform="translate(361.198125 58.070437)scale(0.1 -0.1)">
      <use xlink:href="#DejaVuSans-105"/>
      <use x="27.783203" xlink:href="#DejaVuSans-110"/>
      <use x="91.162109" xlink:href="#DejaVuSans-99"/>
      <use x="146.142578" xlink:href="#DejaVuSans-111"/>
      <use x="207.324219" xlink:href="#DejaVuSans-114"/>
      <use x="248.421875" xlink:href="#DejaVuSans-114"/>
      <use x="289.503906" xlink:href="#DejaVuSans-101"/>
      <use x="351.027344" xlink:href="#DejaVuSans-99"/>
      <use x="406.007812" xlink:href="#DejaVuSans-116"/>
     </g>
    </g>
    <g id="PathCollection_7">
     <defs>
      <path d="M 0 3.872983 
C 1.027127 3.872983 2.012324 3.464901 2.738613 2.738613 
C 3.464901 2.012324 3.872983 1.027127 3.872983 0 
C 3.872983 -1.027127 3.464901 -2.012324 2.738613 -2.738613 
C 2.012324 -3.464901 1.027127 -3.872983 0 -3.872983 
C -1.027127 -3.872983 -2.012324 -3.464901 -2.738613 -2.738613 
C -3.464901 -2.012324 -3.872983 -1.027127 -3.872983 0 
C -3.872983 1.027127 -3.464901 2.012324 -2.738613 2.738613 
C -2.012324 3.464901 -1.027127 3.872983 0 3.872983 
z
" id="m953c49e9a8" style="stroke:#ff7c00;stroke-width:0.5;"/>
     </defs>
     <g>
      <use style="fill:#ff7c00;stroke:#ff7c00;stroke-width:0.5;" x="343.198125" xlink:href="#m953c49e9a8" y="70.123562"/>
     </g>
    </g>
    <g id="text_16">
     <!-- correct -->
     <g transform="translate(361.198125 72.748562)scale(0.1 -0.1)">
      <use xlink:href="#DejaVuSans-99"/>
      <use x="54.980469" xlink:href="#DejaVuSans-111"/>
      <use x="116.162109" xlink:href="#DejaVuSans-114"/>
      <use x="157.259766" xlink:href="#DejaVuSans-114"/>
      <use x="198.341797" xlink:href="#DejaVuSans-101"/>
      <use x="259.865234" xlink:href="#DejaVuSans-99"/>
      <use x="314.845703" xlink:href="#DejaVuSans-116"/>
     </g>
    </g>
   </g>
  </g>
 </g>
 <defs>
  <clipPath id="pa534ed11a1">
   <rect height="266.112" width="357.12" x="57.6" y="41.472"/>
  </clipPath>
 </defs>
</svg>
